# This file uses centimeters as units for non-parametric coordinates.

mtllib bear_pistol.mtl
g default
v -0.686620 -0.064714 1.588985
v -0.700533 -0.027933 0.085384
v -0.972625 -0.056456 1.591478
v -0.986538 -0.019675 0.087876
v -1.001664 -0.548095 1.570318
v -1.015576 -0.511313 0.066717
v -0.715659 -0.556352 1.567825
v -0.729571 -0.519571 0.064224
v -0.924099 -0.460684 1.411883
v -0.741533 -0.467194 1.411675
v -0.902478 0.679131 1.434576
v -0.719912 0.672620 1.434368
v -0.902478 0.689204 1.289357
v -0.719912 0.682694 1.289148
v -0.924099 -0.450610 1.266664
v -0.741533 -0.457121 1.266456
v -1.157358 0.319151 1.422532
v -0.483117 0.312400 1.422317
v -1.148212 0.469986 1.432131
v -0.473971 0.463235 1.431915
v -1.148212 0.480674 1.292415
v -0.473971 0.473922 1.292199
v -1.157358 0.329839 1.282817
v -0.483117 0.323087 1.282601
vt 0.375000 0.000000
vt 0.625000 0.000000
vt 0.375000 0.250000
vt 0.625000 0.250000
vt 0.375000 0.500000
vt 0.625000 0.500000
vt 0.375000 0.750000
vt 0.625000 0.750000
vt 0.375000 1.000000
vt 0.625000 1.000000
vt 0.875000 0.000000
vt 0.875000 0.250000
vt 0.125000 0.000000
vt 0.125000 0.250000
vt 0.375000 0.000000
vt 0.625000 0.000000
vt 0.625000 0.250000
vt 0.375000 0.250000
vt 0.625000 0.500000
vt 0.375000 0.500000
vt 0.625000 0.750000
vt 0.375000 0.750000
vt 0.625000 1.000000
vt 0.375000 1.000000
vt 0.875000 0.000000
vt 0.875000 0.250000
vt 0.125000 0.000000
vt 0.125000 0.250000
vt 0.375000 0.000000
vt 0.625000 0.000000
vt 0.625000 0.250000
vt 0.375000 0.250000
vt 0.625000 0.500000
vt 0.375000 0.500000
vt 0.625000 0.750000
vt 0.375000 0.750000
vt 0.625000 1.000000
vt 0.375000 1.000000
vt 0.875000 0.000000
vt 0.875000 0.250000
vt 0.125000 0.000000
vt 0.125000 0.250000
vn 0.029062 0.999285 0.024176
vn 0.029063 0.999285 0.024176
vn 0.029063 0.999285 0.024176
vn 0.029063 0.999285 0.024176
vn -0.998230 0.058500 0.010668
vn -0.998230 0.058500 0.010668
vn -0.998230 0.058500 0.010668
vn -0.998230 0.058500 0.010668
vn -0.029062 -0.999285 -0.024176
vn -0.029062 -0.999285 -0.024176
vn -0.029062 -0.999285 -0.024176
vn -0.029062 -0.999285 -0.024176
vn 0.998230 -0.058500 -0.010668
vn 0.998230 -0.058500 -0.010668
vn 0.998230 -0.058500 -0.010668
vn 0.998230 -0.058500 -0.010668
vn -0.007453 0.043437 -0.999028
vn -0.007453 0.043437 -0.999028
vn -0.007453 0.043437 -0.999028
vn -0.007453 0.043437 -0.999028
vn 0.007453 -0.043437 0.999028
vn 0.007454 -0.043437 0.999028
vn 0.007454 -0.043437 0.999028
vn 0.007454 -0.043437 0.999028
vn 0.000432 -0.019913 0.999802
vn 0.000430 -0.019913 0.999802
vn 0.000432 -0.019913 0.999802
vn 0.000429 -0.019913 0.999802
vn 0.035632 0.996969 0.069157
vn 0.035632 0.996969 0.069158
vn 0.035632 0.996969 0.069158
vn 0.035632 0.996969 0.069158
vn -0.000430 0.019913 -0.999802
vn -0.000430 0.019913 -0.999802
vn -0.000429 0.019913 -0.999802
vn -0.000428 0.019913 -0.999802
vn -0.035632 -0.996969 -0.069158
vn -0.035632 -0.996969 -0.069158
vn -0.035632 -0.996969 -0.069158
vn -0.035631 -0.996969 -0.069158
vn 0.999820 -0.018940 -0.001314
vn 0.999820 -0.018940 -0.001314
vn 0.999820 -0.018940 -0.001314
vn 0.999820 -0.018940 -0.001314
vn -0.999820 0.018940 0.001314
vn -0.999820 0.018940 0.001314
vn -0.999820 0.018940 0.001314
vn -0.999820 0.018940 0.001314
vn -0.000317 -0.063490 0.997982
vn -0.000316 -0.063490 0.997983
vn -0.000316 -0.063490 0.997982
vn -0.000316 -0.063490 0.997982
vn 0.010008 0.997037 0.076268
vn 0.010008 0.997037 0.076268
vn 0.010008 0.997037 0.076268
vn 0.010008 0.997037 0.076267
vn 0.000316 0.063489 -0.997983
vn 0.000316 0.063489 -0.997983
vn 0.000316 0.063489 -0.997983
vn 0.000316 0.063489 -0.997983
vn -0.010008 -0.997037 -0.076268
vn -0.010008 -0.997037 -0.076268
vn -0.010008 -0.997037 -0.076268
vn -0.010008 -0.997037 -0.076268
vn 0.998174 -0.060229 -0.004607
vn 0.998174 -0.060229 -0.004607
vn 0.998174 -0.060229 -0.004607
vn 0.998174 -0.060229 -0.004607
vn -0.998174 0.060229 0.004607
vn -0.998174 0.060229 0.004607
vn -0.998174 0.060229 0.004607
vn -0.998174 0.060230 0.004607
s 1
g pCube22
usemtl initialShadingGroup
f 4/4/1 3/3/2 2/2/3
f 2/2/3 3/3/2 1/1/4
s 2
f 6/6/5 5/5/6 4/4/7
f 4/4/7 5/5/6 3/3/8
s 3
f 8/8/9 7/7/10 6/6/11
f 6/6/11 7/7/10 5/5/12
s 4
f 1/9/13 7/7/14 2/10/15
f 2/10/15 7/7/14 8/8/16
s 5
f 6/12/17 4/4/18 8/11/19
f 8/11/19 4/4/18 2/2/20
s 6
f 5/14/21 7/13/22 3/3/23
f 3/3/23 7/13/22 1/1/24
s 7
usemtl lambert3SG
f 11/18/25 9/15/26 12/17/27
f 12/17/27 9/15/26 10/16/28
s 8
f 13/20/29 11/18/30 14/19/31
f 14/19/31 11/18/30 12/17/32
s 9
f 13/20/33 14/19/34 15/22/35
f 15/22/35 14/19/34 16/21/36
s 10
f 15/22/37 16/21/38 9/24/39
f 9/24/39 16/21/38 10/23/40
s 11
f 10/16/41 16/25/42 12/17/43
f 12/17/43 16/25/42 14/26/44
s 12
f 13/28/45 15/27/46 11/18/47
f 11/18/47 15/27/46 9/15/48
s 13
f 17/29/49 18/30/50 19/32/51
f 19/32/51 18/30/50 20/31/52
s 14
f 22/33/53 21/34/54 20/31/55
f 20/31/55 21/34/54 19/32/56
s 15
f 23/36/57 21/34/58 24/35/59
f 24/35/59 21/34/58 22/33/60
s 16
f 18/37/61 17/38/62 24/35/63
f 24/35/63 17/38/62 23/36/64
s 17
f 18/30/65 24/39/66 20/31/67
f 20/31/67 24/39/66 22/40/68
s 18
f 21/42/69 23/41/70 19/32/71
f 19/32/71 23/41/70 17/29/72
g default
v -1.028026 -0.697248 0.849348
v -0.627321 -0.697248 0.849348
v -1.028026 0.006506 0.849348
v -0.627321 0.006506 0.849348
v -1.028026 0.006506 -0.510824
v -0.627321 0.006506 -0.510824
v -1.028026 -0.697248 -0.510824
v -0.627321 -0.697248 -0.510824
vt 0.375000 0.000000
vt 0.625000 0.000000
vt 0.375000 0.250000
vt 0.625000 0.250000
vt 0.375000 0.500000
vt 0.625000 0.500000
vt 0.375000 0.750000
vt 0.625000 0.750000
vt 0.375000 1.000000
vt 0.625000 1.000000
vt 0.875000 0.000000
vt 0.875000 0.250000
vt 0.125000 0.000000
vt 0.125000 0.250000
vn 0.000000 0.000000 1.000000
vn 0.000000 0.000000 1.000000
vn 0.000000 0.000000 1.000000
vn 0.000000 0.000000 1.000000
vn 0.000000 1.000000 0.000000
vn 0.000000 1.000000 0.000000
vn 0.000000 1.000000 0.000000
vn 0.000000 1.000000 0.000000
vn 0.000000 0.000000 -1.000000
vn 0.000000 0.000000 -1.000000
vn 0.000000 0.000000 -1.000000
vn 0.000000 0.000000 -1.000000
vn 0.000000 -1.000000 0.000000
vn 0.000000 -1.000000 0.000000
vn 0.000000 -1.000000 0.000000
vn 0.000000 -1.000000 0.000000
vn 1.000000 0.000000 0.000000
vn 1.000000 0.000000 0.000000
vn 1.000000 0.000000 0.000000
vn 1.000000 0.000000 0.000000
vn -1.000000 0.000000 0.000000
vn -1.000000 0.000000 0.000000
vn -1.000000 0.000000 0.000000
vn -1.000000 0.000000 0.000000
s 1
g pCube22 pCube23
usemtl lambert4SG
f 25/43/73 26/44/74 27/45/75
f 27/45/75 26/44/74 28/46/76
s 2
f 27/45/77 28/46/78 29/47/79
f 29/47/79 28/46/78 30/48/80
s 3
f 29/47/81 30/48/82 31/49/83
f 31/49/83 30/48/82 32/50/84
s 4
f 31/49/85 32/50/86 25/51/87
f 25/51/87 32/50/86 26/52/88
s 5
f 26/44/89 32/53/90 28/46/91
f 28/46/91 32/53/90 30/54/92
s 6
f 31/55/93 25/43/94 29/56/95
f 29/56/95 25/43/94 27/45/96
